ply
format ascii 1.0
comment Created by Blender 2.79 (sub 0) - www.blender.org, source file: 'test-cube.blend'
element vertex 26
property float x
property float y
property float z
property float nx
property float ny
property float nz
property uchar red
property uchar green
property uchar blue
element face 12
property list uchar uint vertex_indices
end_header
1.000000 -1.000000 0.000000 -0.000000 -0.000000 -1.000000 34 255 47
-1.000000 1.000000 0.000000 -0.000000 -0.000000 -1.000000 253 101 60
1.000000 1.000000 0.000000 -0.000000 -0.000000 -1.000000 253 102 60
-1.000000 1.000000 2.000000 0.000000 0.000000 1.000000 255 85 241
0.999999 -1.000001 2.000000 0.000000 0.000000 1.000000 255 1 251
1.000000 0.999999 2.000000 0.000000 0.000000 1.000000 40 49 254
1.000000 0.999999 2.000000 1.000000 0.000000 -0.000000 152 255 243
1.000000 -1.000000 0.000000 1.000000 0.000000 -0.000000 1 8 255
1.000000 1.000000 0.000000 1.000000 0.000000 -0.000000 255 96 55
0.999999 -1.000001 2.000000 -0.000000 -1.000000 -0.000000 255 1 251
-1.000000 -1.000000 0.000000 -0.000000 -1.000000 -0.000000 152 255 243
1.000000 -1.000000 0.000000 -0.000000 -1.000000 -0.000000 1 8 255
-1.000000 -1.000000 0.000000 -1.000000 0.000000 -0.000000 35 251 41
-1.000000 1.000000 2.000000 -1.000000 0.000000 -0.000000 1 255 15
-1.000000 1.000000 0.000000 -1.000000 0.000000 -0.000000 253 101 60
1.000000 1.000000 0.000000 0.000000 1.000000 0.000000 253 102 60
-1.000000 1.000000 2.000000 0.000000 1.000000 0.000000 255 85 242
1.000000 0.999999 2.000000 0.000000 1.000000 0.000000 125 188 248
-1.000000 -1.000000 0.000000 0.000000 -0.000000 -1.000000 35 251 41
-1.000000 -1.000000 2.000000 0.000000 -0.000000 1.000000 255 1 3
1.000000 0.999999 2.000000 1.000000 -0.000001 0.000000 152 255 243
0.999999 -1.000001 2.000000 1.000000 -0.000001 0.000000 152 255 243
1.000000 -1.000000 0.000000 1.000000 -0.000001 0.000000 1 8 255
-1.000000 -1.000000 2.000000 -0.000000 -1.000000 0.000000 255 1 3
-1.000000 -1.000000 2.000000 -1.000000 0.000000 -0.000000 255 1 3
-1.000000 1.000000 0.000000 0.000000 1.000000 0.000000 253 99 60
3 0 1 2
3 3 4 5
3 6 7 8
3 9 10 11
3 12 13 14
3 15 16 17
3 0 18 1
3 3 19 4
3 20 21 22
3 9 23 10
3 12 24 13
3 15 25 16
