ply
format ascii 1.0
comment Created by Blender 2.79 (sub 0) - www.blender.org, source file: ''
element vertex 325
property float x
property float y
property float z
property float nx
property float ny
property float nz
property float s
property float t
property uchar red
property uchar green
property uchar blue
element face 172
property list uchar uint vertex_indices
end_header
-3.742620 -0.165534 6.272000 -0.862948 0.498223 0.084227 -45.125019 49.265789 124 133 139
-3.529794 -0.165534 8.452499 -0.862948 0.498223 0.084227 -45.962921 66.496307 124 133 139
-2.067294 2.367590 8.452499 -0.862948 0.498223 0.084227 -68.994423 66.496307 124 133 139
-2.067294 2.367590 8.452499 -0.862949 0.498220 0.084232 -68.994423 66.496307 124 133 139
-3.591387 0.096411 6.272000 -0.862949 0.498220 0.084232 -47.506649 49.265789 124 133 139
-3.742620 -0.165534 6.272000 -0.862949 0.498220 0.084232 -45.125019 49.265789 124 133 139
-3.529794 -0.165534 8.452499 -0.862948 -0.498223 0.084227 -21.154449 69.760139 104 112 117
-3.022714 -1.412446 6.272000 -0.862948 -0.498223 0.084227 -10.655260 52.529621 104 112 117
-2.067294 -2.698658 8.452499 -0.862948 -0.498223 0.084227 1.877042 69.760139 104 112 117
-2.067294 2.367590 8.452499 0.000000 -0.000000 1.000000 36.324211 58.696091 192 206 215
-3.529794 -0.165534 8.452499 0.000000 -0.000000 1.000000 24.808470 38.750229 192 206 215
-2.067294 -2.698658 8.452499 0.000000 -0.000000 1.000000 36.324211 18.804371 192 206 215
-2.059957 -0.563335 8.452499 0.000000 0.000000 1.000000 36.381981 35.617939 192 206 215
-1.216837 -2.023659 8.452499 0.000000 0.000000 1.000000 43.020710 24.119320 192 206 215
0.857707 -2.698658 8.452499 0.000000 0.000000 1.000000 59.355709 18.804371 192 206 215
0.469399 -2.023659 8.452499 -0.000000 0.000000 1.000000 56.298180 24.119320 192 206 215
1.312519 -0.563335 8.452499 -0.000000 0.000000 1.000000 62.936901 35.617939 192 206 215
2.320207 -0.165534 8.452499 -0.000000 0.000000 1.000000 70.871460 38.750229 192 206 215
-1.216837 0.896989 8.452499 0.000000 0.000000 1.000000 43.020710 47.116562 192 206 215
2.167198 -3.789774 2.400000 0.000000 -0.000000 1.000000 69.666672 10.212900 192 206 215
0.488038 -4.421886 2.400000 0.000000 -0.000000 1.000000 56.444931 5.235643 192 206 215
2.448037 -4.421886 2.400000 0.000000 -0.000000 1.000000 71.877998 5.235643 192 206 215
0.857707 2.367590 8.452499 0.000000 0.000000 1.000000 59.355709 58.696091 192 206 215
0.469399 0.896989 8.452499 0.000000 0.000000 1.000000 56.298180 47.116562 192 206 215
0.241757 0.502702 12.247500 0.000000 0.994646 0.103340 -54.505718 91.372482 166 178 186
-1.216837 0.896989 8.452499 0.000000 0.994646 0.103340 -43.020710 61.329750 166 178 186
-0.989195 0.502702 12.247500 0.000000 0.994646 0.103340 -44.813171 91.372482 166 178 186
2.866360 -2.216102 2.400000 0.910192 -0.404386 0.089563 51.178150 13.490940 177 190 198
2.034358 -3.490777 5.100000 0.910192 -0.404386 0.089563 39.345970 34.836571 177 190 198
2.167198 -3.789774 2.400000 0.910192 -0.404386 0.089563 37.619129 13.490940 177 190 198
0.241757 0.502702 12.247500 0.861389 0.497323 0.103340 10.862590 88.768578 186 200 209
1.312519 -0.563335 8.452499 0.861389 0.497323 0.103340 -0.622412 58.725842 186 200 209
0.469399 0.896989 8.452499 0.861389 0.497323 0.103340 12.655050 58.725842 186 200 209
0.857234 -0.563335 12.247500 0.861389 -0.497323 0.103340 60.522041 92.449348 175 188 196
0.469399 -2.023659 8.452499 0.861389 -0.497323 0.103340 49.037029 62.406609 175 188 196
1.312519 -0.563335 8.452499 0.861389 -0.497323 0.103340 62.314491 62.406609 175 188 196
-0.989195 0.502702 12.247500 0.000000 -0.000000 1.000000 44.813171 44.011929 192 206 215
-1.604672 -0.563335 12.247500 0.000000 -0.000000 1.000000 39.966900 35.617939 192 206 215
-0.989195 -1.629371 12.247500 0.000000 -0.000000 1.000000 44.813171 27.223949 192 206 215
-3.383794 -1.412446 6.272000 0.000000 -0.978450 0.206485 25.958071 54.295582 138 149 156
-2.930086 -2.219013 2.450000 0.000000 -0.978450 0.206485 29.530569 23.538260 144 155 162
-3.022714 -1.412446 6.272000 0.000000 -0.978450 0.206485 28.801220 54.295582 144 155 162
0.241757 -1.629371 12.247500 0.000000 0.000000 1.000000 54.505718 27.223949 192 206 215
0.857234 -0.563335 12.247500 0.000000 0.000000 1.000000 59.351990 35.617939 192 206 215
0.241757 0.502702 12.247500 0.000000 0.000000 1.000000 54.505718 44.011929 192 206 215
-2.639297 -3.637886 2.450000 -0.540467 -0.694241 0.475315 18.100161 30.542839 142 152 159
-5.406084 -3.161343 0.000000 -0.540467 -0.694241 0.475315 -1.395451 8.616270 142 152 159
-2.932778 -5.086813 0.000000 -0.540467 -0.694241 0.475315 23.285130 8.616270 142 152 159
2.905487 0.249674 0.000000 0.862949 0.498222 0.084228 -1.349954 -7.275341 185 199 208
1.784105 1.609991 3.442500 0.862949 0.498222 0.084228 12.341070 19.927620 185 199 208
0.857707 2.367590 8.452499 0.862949 0.498222 0.084228 21.154449 59.517120 185 199 208
1.784105 1.609991 3.442500 0.862948 0.498224 0.084228 12.341070 19.927620 185 199 208
1.102205 2.791075 3.442500 0.862948 0.498224 0.084228 23.079639 19.927620 185 199 208
0.857707 2.367590 8.452499 0.862948 0.498224 0.084228 21.154449 59.517120 185 199 208
-0.989195 -1.629371 12.247500 0.000000 -0.994646 0.103340 44.813171 98.734016 138 148 155
0.469399 -2.023659 8.452499 0.000000 -0.994646 0.103340 56.298180 68.691277 138 148 155
0.241757 -1.629371 12.247500 0.000000 -0.994646 0.103340 54.505718 98.734016 138 148 155
-1.604672 -0.563335 12.247500 -0.861388 -0.497324 0.103340 -10.862590 101.337898 105 114 119
-1.216837 -2.023659 8.452499 -0.861388 -0.497324 0.103340 0.622412 71.295189 105 114 119
-0.989195 -1.629371 12.247500 -0.861388 -0.497324 0.103340 -1.170045 101.337898 105 114 119
0.720701 3.800830 3.442501 0.088886 0.895867 0.435340 -51.082569 -8.418941 182 195 204
2.901052 5.257357 0.000000 0.088886 0.895867 0.435340 -67.034439 -38.528149 182 195 204
-0.395545 5.584437 0.000000 0.088886 0.895867 0.435340 -40.949532 -38.528149 182 195 204
-3.497964 -2.219013 2.450000 -0.000000 -0.000001 1.000000 25.059090 22.581100 192 206 215
-4.354602 -1.971539 2.450000 -0.000000 -0.000001 1.000000 18.313919 24.529720 192 206 215
-4.242539 -2.389760 2.450000 -0.000000 -0.000001 1.000000 19.196289 21.236641 192 206 215
-4.242539 -2.389760 2.450000 -0.000000 -0.000000 1.000000 19.196289 21.236641 192 206 215
-2.639297 -3.637886 2.450000 -0.000000 -0.000000 1.000000 31.820250 11.408870 192 206 215
-3.497964 -2.219013 2.450000 -0.000000 -0.000000 1.000000 25.059090 22.581100 192 206 215
2.370904 -1.100931 2.400000 0.000000 0.000000 1.000000 71.270653 31.384899 192 206 215
3.428041 -2.216102 2.400000 0.000000 0.000000 1.000000 79.594543 22.604019 192 206 215
2.688321 -0.551149 2.400000 0.000000 0.000000 1.000000 73.769997 35.713890 192 206 215
-2.248186 -3.533088 2.450000 0.000000 0.000000 1.000000 34.899872 12.234050 192 206 215
-2.360229 -3.206036 2.450000 0.000000 0.000000 1.000000 34.017639 14.809270 192 206 215
-2.184689 -3.206036 2.450000 -0.000000 0.000000 1.000000 35.399841 14.809270 192 206 215
-0.874061 2.705851 4.450737 0.000000 0.996446 0.084228 -45.719749 29.752470 165 177 185
-2.067294 2.367590 8.452499 0.000000 0.996446 0.084228 -36.324211 61.374802 165 177 185
0.857707 2.367590 8.452499 0.000000 0.996446 0.084228 -59.355709 61.374802 165 177 185
3.918041 -2.216102 0.000000 0.898361 -0.399131 0.183415 54.540359 -12.304790 180 194 202
2.448037 -4.421886 2.400000 0.898361 -0.399131 0.183415 33.968430 6.918967 180 194 202
2.693036 -4.973332 0.000000 0.898361 -0.399131 0.183415 30.783600 -12.304790 180 194 202
-0.330470 2.909522 2.041224 -0.844599 0.311660 0.435340 -76.379303 25.401581 143 154 161
0.348097 2.791075 3.442500 -0.844599 0.311660 0.435340 -77.354012 37.657589 143 154 161
0.720701 3.800830 3.442501 -0.844599 0.311660 0.435340 -85.828873 37.657589 143 154 161
-2.930086 -2.219013 2.450000 0.000000 -0.000000 1.000000 29.530569 22.581100 192 206 215
1.856666 1.729424 3.442500 0.769403 -0.467438 0.435340 80.772476 11.524350 186 200 209
2.905487 0.249674 0.000000 0.769403 -0.467438 0.435340 75.102592 -18.584860 186 200 209
3.608481 1.406801 0.000000 0.769403 -0.467438 0.435340 85.763527 -18.584860 186 200 209
-1.668732 4.082262 4.450737 0.842561 0.486453 0.231202 42.793571 17.848080 190 204 213
-0.874061 2.705851 4.450737 0.842561 0.486453 0.231202 30.279060 17.848080 190 204 213
-0.330470 2.909522 2.041224 0.842561 0.486453 0.231202 29.527790 -1.652815 190 204 213
-0.753949 4.613166 0.000000 0.842561 0.486453 0.231202 42.812351 -18.173050 190 204 213
-1.058081 5.139937 0.000000 0.842561 0.486453 0.231202 47.601830 -18.173050 190 204 213
-0.876584 -3.413128 0.000000 0.863689 -0.167682 0.475315 21.646950 -20.129829 193 208 217
-2.248186 -3.533088 2.450000 0.863689 -0.167682 0.475315 18.661329 1.796737 193 208 217
-1.106520 -4.597469 0.000000 0.863689 -0.167682 0.475315 12.147300 -20.129829 193 208 217
0.348097 2.791075 3.442500 -0.000000 0.996447 0.084227 -55.343040 21.785299 165 177 185
-0.330470 2.909522 2.041224 -0.000000 0.996447 0.084227 -50.000000 10.712290 165 177 185
-0.874061 2.705851 4.450737 -0.000000 0.996447 0.084227 -45.719749 29.752470 165 177 185
0.348097 2.791075 3.442500 -0.000000 0.996446 0.084228 -55.343040 21.785299 165 177 185
0.857707 2.367590 8.452499 -0.000000 0.996447 0.084228 -59.355709 61.374802 165 177 185
1.102205 2.791075 3.442500 -0.000000 0.996447 0.084228 -61.280899 21.785299 165 177 185
0.348097 2.791075 3.442500 -0.000000 0.996447 0.084228 -55.343040 21.785299 165 177 185
1.490128 3.724487 3.442501 0.885447 0.162676 0.435340 56.612930 -8.601693 196 210 220
3.608481 1.406801 0.000000 0.885447 0.162676 0.435340 35.649799 -38.710911 196 210 220
2.901052 5.257357 0.000000 0.885447 0.162676 0.435340 66.476578 -38.710911 196 210 220
-5.102169 1.688520 2.726762 -0.842561 -0.486453 0.231202 -39.987881 29.544380 116 125 131
-4.419055 1.324706 4.450737 -0.842561 -0.486453 0.231202 -34.817570 43.497009 116 125 131
-4.925530 2.201948 4.450737 -0.842561 -0.486453 0.231202 -42.793571 43.497009 116 125 131
-5.102169 1.688520 2.726762 -0.842561 -0.486452 0.231202 -39.987881 29.544380 116 125 131
-4.925530 2.201948 4.450737 -0.842561 -0.486452 0.231202 -42.793571 43.497009 116 125 131
-6.146831 2.201948 0.000000 -0.842561 -0.486452 0.231202 -47.601830 7.475885 116 125 131
-5.791805 1.587024 0.000000 -0.842561 -0.486452 0.231202 -42.010872 7.475885 116 125 131
-2.930086 -2.219013 2.450000 -0.862948 -0.498223 0.084227 -4.790519 22.327810 104 112 117
-2.360229 -3.206036 2.450000 -0.862948 -0.498223 0.084227 4.183615 22.327810 104 112 117
0.857707 -2.698658 8.452499 0.000000 -0.996447 0.084227 59.355709 67.902458 137 147 154
0.675691 -2.982037 5.100000 0.000000 -0.996447 0.084227 57.922508 41.410690 137 147 154
1.021316 -2.982037 5.100000 0.000000 -0.996447 0.084227 60.643970 41.410690 137 147 154
-3.839931 4.082262 4.450737 0.000000 -0.000000 1.000000 22.366440 72.197441 192 206 215
-4.925530 2.201948 4.450737 0.000000 -0.000000 1.000000 13.818410 57.391819 192 206 215
-4.419055 1.324706 4.450737 0.000000 -0.000000 1.000000 17.806410 50.484402 192 206 215
-4.038428 1.324706 4.450737 0.000000 0.000000 1.000000 20.803471 50.484402 192 206 215
-3.483576 0.591038 4.450737 0.000000 0.000000 1.000000 25.172380 44.707489 192 206 215
-1.668732 4.082262 4.450737 -0.000000 0.000000 1.000000 39.462502 72.197441 192 206 215
-2.262588 2.705851 4.450737 0.000000 0.000000 1.000000 34.786461 61.359558 192 206 215
-0.874061 2.705851 4.450737 0.000000 0.000000 1.000000 45.719749 61.359558 192 206 215
2.370904 -1.100931 2.400000 0.910192 0.404386 0.089563 -0.255599 11.846980 186 200 208
2.600678 -2.216102 5.100000 0.910192 0.404386 0.089563 -9.014721 33.192612 186 200 208
2.866360 -2.216102 2.400000 0.910192 0.404386 0.089563 -9.864101 11.846980 186 200 208
-4.634550 0.940359 6.272000 -0.879521 0.428728 0.206485 -49.718410 47.017830 130 140 146
-5.102169 1.688520 2.726762 -0.879521 0.428728 0.206485 -53.400459 18.487740 130 140 146
-5.791805 1.587024 0.000000 -0.879521 0.428728 0.206485 -50.302731 -3.455713 130 140 146
-2.248186 -3.533088 2.450000 0.227713 -0.849837 0.475315 36.877090 18.296310 167 179 187
-2.932778 -5.086813 0.000000 0.227713 -0.849837 0.475315 28.503870 -3.630261 167 179 187
-1.106520 -4.597469 0.000000 0.227713 -0.849837 0.475315 43.391121 -3.630261 167 179 187
-4.450582 5.139937 0.000000 0.000000 0.000000 -1.000000 -17.558170 80.525597 69 75 79
-1.106520 -4.597469 0.000000 0.000000 0.000000 -1.000000 -43.889359 3.853105 69 75 79
-2.932778 -5.086813 0.000000 0.000000 0.000000 -1.000000 -29.509380 0.000000 69 75 79
1.102205 2.791075 3.442500 0.000000 -0.000000 1.000000 61.280899 62.030621 192 206 215
0.720701 3.800830 3.442501 0.000000 -0.000000 1.000000 58.276920 69.981438 192 206 215
0.348097 2.791075 3.442500 0.000000 -0.000000 1.000000 55.343040 62.030621 192 206 215
2.905487 0.249674 0.000000 -0.000000 0.000000 -1.000000 -75.479973 42.019581 69 75 79
2.901052 5.257357 0.000000 -0.000000 0.000000 -1.000000 -75.445053 81.450142 69 75 79
3.608481 1.406801 0.000000 -0.000000 0.000000 -1.000000 -81.015388 51.130821 69 75 79
2.693036 -4.973332 0.000000 0.000000 0.000000 -1.000000 -73.807129 0.893548 69 75 79
0.488038 -4.421886 2.400000 -0.898362 -0.399130 0.183416 18.132980 28.428080 112 120 126
-0.450140 -3.413128 0.000000 -0.898362 -0.399130 0.183416 7.874827 9.204320 112 120 126
0.243037 -4.973332 0.000000 -0.898362 -0.399130 0.183416 21.317810 9.204320 112 120 126
-0.395545 5.584437 0.000000 0.000000 0.000000 -1.000000 -49.487591 84.025627 69 75 79
0.243037 -4.973332 0.000000 0.000000 0.000000 -1.000000 -54.515789 0.893548 69 75 79
-0.450140 -3.413128 0.000000 0.000000 0.000000 -1.000000 -49.057701 13.178620 69 75 79
-0.753949 4.613166 0.000000 -0.000000 0.000000 -1.000000 -46.665508 76.377777 69 75 79
-0.876584 -3.413128 0.000000 0.000000 0.000000 -1.000000 -45.699890 13.178620 69 75 79
-1.058081 5.139937 0.000000 0.000000 0.000000 -1.000000 -44.270771 80.525597 69 75 79
-3.483576 0.591038 4.450737 0.780404 0.590198 0.206485 20.474440 24.575899 189 203 212
-4.229640 0.940359 6.272000 0.780404 0.590198 0.206485 26.211760 39.232422 189 203 212
-3.591387 0.096411 6.272000 0.780404 0.590198 0.206485 17.880110 39.232422 189 203 212
-5.406084 -3.161343 0.000000 0.000000 0.000000 -1.000000 -10.034530 15.161180 69 75 79
-5.683559 -2.125789 0.000000 -0.000000 0.000000 -1.000000 -7.849683 23.315149 69 75 79
-5.791805 1.587024 0.000000 0.000000 0.000000 -1.000000 -6.997353 52.549900 69 75 79
-6.146831 2.201948 0.000000 0.000000 0.000000 -1.000000 -4.201872 57.391819 69 75 79
3.067101 -0.300816 0.000000 -0.000000 0.000000 -1.000000 -76.752518 37.685020 69 75 79
3.145207 -0.165534 0.000000 -0.000000 0.000000 -1.000000 -77.367523 38.750229 69 75 79
-6.680469 -1.837792 0.000000 0.000000 0.000000 -1.000000 0.000000 25.582840 69 75 79
-6.680469 -0.236043 0.000000 -0.000000 0.000000 -1.000000 0.000000 38.195030 69 75 79
3.918041 -2.216102 0.000000 0.000000 0.000000 -1.000000 -83.452797 22.604019 69 75 79
-1.668732 4.082262 4.450737 0.000000 0.972906 0.231202 -39.462502 17.403431 171 184 192
-4.450582 5.139937 0.000000 0.000000 0.972906 0.231202 -17.558170 -18.617701 171 184 192
-3.839931 4.082262 4.450737 0.000000 0.972906 0.231202 -22.366440 17.403431 171 184 192
0.511406 -3.210262 2.400000 0.000000 -0.000000 1.000000 56.628941 14.775990 192 206 215
-0.050272 -3.210262 2.400000 0.000000 -0.000000 1.000000 52.206280 14.775990 192 206 215
0.768877 -3.789774 2.400000 0.000000 0.000000 1.000000 58.656261 10.212900 192 206 215
-0.395545 5.584437 0.000000 -0.844599 0.311660 0.435340 -95.961906 7.548378 143 154 161
2.866360 -2.216102 2.400000 -0.000000 -0.000000 1.000000 75.171883 22.604019 192 206 215
1.021316 -2.982037 5.100000 0.000000 -0.000000 1.000000 60.643970 16.573040 192 206 215
0.675691 -2.982037 5.100000 0.000000 -0.000000 1.000000 57.922508 16.573040 192 206 215
0.901716 -3.490777 5.100000 0.000000 -0.000000 1.000000 59.702251 12.567210 192 206 215
2.034358 -3.490777 5.100000 0.000000 0.000000 1.000000 68.620682 12.567210 192 206 215
2.106158 -1.103035 5.100000 -0.000000 0.000000 1.000000 69.186043 31.368330 192 206 215
2.600678 -2.216102 5.100000 0.000000 0.000000 1.000000 73.079903 22.604019 192 206 215
0.901716 -3.490777 5.100000 0.000000 -0.993924 0.110067 59.702251 41.296730 138 149 155
2.167198 -3.789774 2.400000 0.000000 -0.993924 0.110067 69.666672 19.906919 138 149 155
2.034358 -3.490777 5.100000 0.000000 -0.993924 0.110067 68.620682 41.296730 138 149 155
-5.356872 -0.842443 6.272000 -0.978450 -0.000000 0.206485 -33.420231 50.473541 117 126 132
-6.680469 -0.236043 0.000000 -0.978450 -0.000000 0.206485 -38.195030 0.000000 117 126 132
-6.680469 -1.837792 0.000000 -0.978450 -0.000000 0.206485 -25.582840 0.000000 117 126 132
3.067101 -0.300816 0.000000 0.898361 0.399132 0.183415 3.276126 -15.671440 189 203 212
3.428041 -2.216102 2.400000 0.898361 0.399132 0.183415 -11.659780 3.552325 189 203 212
3.918041 -2.216102 0.000000 0.898361 0.399132 0.183415 -13.226310 -15.671440 189 203 212
0.901716 -3.490777 5.100000 -0.910192 -0.404387 0.089563 12.755440 45.339649 103 111 117
0.511406 -3.210262 2.400000 -0.910192 -0.404387 0.089563 9.489098 23.994020 103 111 117
0.768877 -3.789774 2.400000 -0.910192 -0.404387 0.089563 14.482280 23.994020 103 111 117
-4.450582 5.139937 0.000000 -0.842561 0.486453 0.231202 -78.516296 -5.793229 134 144 151
-4.925530 2.201948 4.450737 -0.842561 0.486453 0.231202 -56.611969 30.227900 134 144 151
-3.839931 4.082262 4.450737 -0.842561 0.486453 0.231202 -73.708038 30.227900 134 144 151
-4.419055 1.324706 4.450737 -0.000002 0.978450 0.206485 -17.806410 23.865660 170 183 191
-5.102169 1.688520 2.726762 -0.000002 0.978450 0.206485 -12.427560 9.992091 170 183 191
-4.634550 0.940359 6.272000 -0.000002 0.978450 0.206485 -16.109600 38.522179 170 183 191
-4.242539 -2.389760 2.450000 -0.849837 -0.227713 0.475315 -15.544650 28.398750 136 147 153
-5.683559 -2.125789 0.000000 -0.849837 -0.227713 0.475315 -20.489059 6.472182 136 147 153
-5.406084 -3.161343 0.000000 -0.849837 -0.227713 0.475315 -12.047450 6.472182 136 147 153
-4.229640 0.940359 6.272000 0.000000 0.978450 0.206486 -19.297859 38.522179 170 183 191
-4.419055 1.324706 4.450737 0.000000 0.978450 0.206486 -17.806410 23.865660 170 183 191
-4.634550 0.940359 6.272000 0.000000 0.978450 0.206486 -16.109600 38.522179 170 183 191
0.488038 -4.421886 2.400000 0.000000 -0.974604 0.223934 56.444931 19.590160 145 156 163
2.693036 -4.973332 0.000000 0.000000 -0.974604 0.223934 73.807129 0.200096 145 156 163
2.448037 -4.421886 2.400000 0.000000 -0.974604 0.223934 71.877998 19.590160 145 156 163
-0.050272 -3.210262 2.400000 0.000000 -0.996447 0.084227 52.206280 20.075029 137 147 154
0.511406 -3.210262 2.400000 0.000000 -0.996447 0.084227 56.628941 20.075029 137 147 154
0.675691 -2.982037 5.100000 0.000000 -0.996446 0.084227 57.922508 41.410690 137 147 154
-2.184689 -3.206036 2.450000 0.000000 -0.996446 0.084227 35.399841 20.470131 137 147 154
-0.050272 -3.210262 2.400000 0.000000 -0.996446 0.084227 52.206280 20.075029 137 147 154
-2.360229 -3.206036 2.450000 0.000000 -0.996447 0.084227 34.017639 20.470131 137 147 154
-2.184689 -3.206036 2.450000 0.000000 -0.996447 0.084227 35.399841 20.470131 137 147 154
-2.067294 -2.698658 8.452499 0.000000 -0.996447 0.084227 36.324211 67.902458 137 147 154
-2.262588 2.705851 4.450737 -0.862948 0.498224 0.084227 -70.532173 34.873989 124 133 139
-3.591387 0.096411 6.272000 -0.862948 0.498224 0.084227 -47.506649 49.265789 124 133 139
-2.067294 2.367590 8.452499 -0.862948 0.498224 0.084227 -68.994423 66.496307 124 133 139
-3.383794 -1.412446 6.272000 -0.271559 -0.940010 0.206485 16.908461 55.548489 138 149 156
-4.354602 -1.971539 2.450000 -0.271559 -0.940010 0.206485 10.786440 24.791170 133 143 150
-3.497964 -2.219013 2.450000 -0.271559 -0.940010 0.206485 17.807440 24.791170 138 149 156
2.106158 -1.103035 5.100000 0.862948 -0.498223 0.084227 61.758789 36.289181 174 187 195
2.370904 -1.100931 2.400000 0.862948 -0.498223 0.084227 62.815441 14.953520 174 187 195
2.320207 -0.165534 8.452499 0.862948 -0.498223 0.084227 68.994423 62.780949 174 187 195
2.370904 -1.100931 2.400000 0.862948 -0.498224 0.084227 62.815441 14.953520 174 187 195
2.688321 -0.551149 2.400000 0.862948 -0.498224 0.084227 67.814133 14.953520 174 187 195
2.320207 -0.165534 8.452499 0.862948 -0.498224 0.084227 68.994423 62.780949 174 187 195
2.688321 -0.551149 2.400000 0.862947 -0.498224 0.084227 67.814133 14.953520 174 187 195
3.067101 -0.300816 0.000000 0.862947 -0.498224 0.084227 71.012444 -4.011509 174 187 195
2.320207 -0.165534 8.452499 0.862947 -0.498224 0.084227 68.994423 62.780949 174 187 195
3.067101 -0.300816 0.000000 0.862946 -0.498227 0.084227 71.012444 -4.011509 174 187 195
3.145207 -0.165534 0.000000 0.862946 -0.498227 0.084227 72.242447 -4.011509 174 187 195
2.320207 -0.165534 8.452499 0.862946 -0.498227 0.084227 68.994423 62.780949 174 187 195
-5.791805 1.587024 0.000000 -0.879521 0.428727 0.206485 -50.302731 -3.455713 130 140 146
-5.356872 -0.541464 6.272000 -0.879521 0.428727 0.206485 -36.738110 47.017830 130 140 146
-4.634550 0.940359 6.272000 -0.879521 0.428727 0.206485 -49.718410 47.017830 130 140 146
0.857707 -2.698658 8.452499 0.862948 -0.498223 0.084227 45.962921 62.780949 174 187 195
1.021316 -2.982037 5.100000 0.862948 -0.498223 0.084227 44.674660 36.289181 174 187 195
-0.876584 -3.413128 0.000000 0.000000 -0.996447 0.084227 45.699890 1.110001 137 147 154
1.784105 1.609991 3.442500 -0.000000 -0.000000 1.000000 66.650177 52.730740 192 206 215
1.490128 3.724487 3.442501 -0.000000 -0.000000 1.000000 64.335403 69.380318 192 206 215
1.856666 1.729424 3.442500 0.000000 -0.000000 1.000000 67.221527 53.671162 192 206 215
-0.989195 0.502702 12.247500 -0.861389 0.497323 0.103340 -60.522041 97.657158 125 135 141
-2.059957 -0.563335 8.452499 -0.861389 0.497323 0.103340 -49.037029 67.614418 125 135 141
-1.604672 -0.563335 12.247500 -0.861389 0.497323 0.103340 -50.829491 97.657158 125 135 141
-5.356872 -0.541464 6.272000 0.000000 -0.000000 1.000000 10.422030 35.790150 192 206 215
-5.356872 -0.842443 6.272000 0.000000 -0.000000 1.000000 10.422030 33.420231 192 206 215
-3.383794 -1.412446 6.272000 0.000000 -0.000000 1.000000 25.958071 28.932020 192 206 215
-4.634550 0.940359 6.272000 -0.000000 -0.000000 1.000000 16.109600 47.458050 192 206 215
-4.229640 0.940359 6.272000 0.000000 -0.000000 1.000000 19.297859 47.458050 192 206 215
-3.383794 -1.412446 6.272000 0.000003 0.000001 1.000000 25.958071 28.932020 192 206 215
-3.742620 -0.165534 6.272000 0.000003 0.000001 1.000000 23.132669 38.750229 192 206 215
-4.229640 0.940359 6.272000 0.000003 0.000001 1.000000 19.297859 47.458050 192 206 215
-3.022714 -1.412446 6.272000 0.000000 0.000000 1.000000 28.801220 28.932020 192 206 215
-3.742620 -0.165534 6.272000 0.000000 0.000000 1.000000 23.132669 38.750229 192 206 215
-3.591387 0.096411 6.272000 0.000000 -0.000000 1.000000 24.323481 40.812790 192 206 215
2.905487 0.249674 0.000000 0.862948 0.498223 0.084228 -1.349954 -7.275341 185 199 208
2.320207 -0.165534 8.452499 0.862948 0.498223 0.084228 -1.877042 59.517120 185 199 208
3.145207 -0.165534 0.000000 0.862948 0.498223 0.084228 -5.125073 -7.275341 185 199 208
-4.354602 -1.971539 2.450000 -0.271560 -0.940010 0.206485 10.786440 24.791170 133 143 150
-5.356872 -0.842443 6.272000 -0.271560 -0.940010 0.206485 0.737107 55.548489 133 143 150
-6.680469 -1.837792 0.000000 -0.271560 -0.940010 0.206485 -7.100284 5.074944 133 143 150
-6.680469 -1.837792 0.000000 -0.271559 -0.940010 0.206485 -7.100284 5.074944 133 143 150
-5.683559 -2.125789 0.000000 -0.271559 -0.940010 0.206485 1.070394 5.074944 133 143 150
-3.529794 -0.165534 8.452499 -0.862948 -0.498224 0.084227 -21.154449 69.760139 104 112 117
-3.742620 -0.165534 6.272000 -0.862948 -0.498224 0.084227 -21.992350 52.529621 104 112 117
-3.022714 -1.412446 6.272000 -0.862948 -0.498224 0.084227 -10.655260 52.529621 104 112 117
0.469399 0.896989 8.452499 -0.000000 0.994646 0.103340 -56.298180 61.329750 166 178 186
2.866360 -2.216102 2.400000 0.910193 -0.404386 0.089563 51.178150 13.490940 177 190 198
2.600678 -2.216102 5.100000 0.910193 -0.404386 0.089563 50.328770 34.836571 177 190 198
2.034358 -3.490777 5.100000 0.910193 -0.404386 0.089563 39.345970 34.836571 177 190 198
0.857234 -0.563335 12.247500 0.861389 0.497323 0.103340 1.170045 88.768578 186 200 209
0.857234 -0.563335 12.247500 0.861388 -0.497324 0.103340 60.522041 92.449348 175 188 196
0.241757 -1.629371 12.247500 0.861388 -0.497324 0.103340 50.829491 92.449348 175 188 196
0.469399 -2.023659 8.452499 0.861388 -0.497324 0.103340 49.037029 62.406609 175 188 196
-3.497964 -2.219013 2.450000 0.000000 -0.978450 0.206485 25.059090 23.538260 138 149 156
-4.242539 -2.389760 2.450000 -0.540467 -0.694241 0.475315 2.101747 30.542839 142 152 159
-1.216837 -2.023659 8.452499 0.000000 -0.994646 0.103340 43.020710 68.691277 138 148 155
-1.604672 -0.563335 12.247500 -0.861389 -0.497323 0.103340 -10.862590 101.337898 105 114 119
-2.059957 -0.563335 8.452499 -0.861389 -0.497323 0.103340 -12.655050 71.295189 105 114 119
-1.216837 -2.023659 8.452499 -0.861389 -0.497323 0.103340 0.622412 71.295189 105 114 119
0.720701 3.800830 3.442501 0.088888 0.895867 0.435341 -51.082569 -8.418941 182 195 204
1.490128 3.724487 3.442501 0.088888 0.895867 0.435341 -57.170792 -8.418941 182 195 204
2.901052 5.257357 0.000000 0.088888 0.895867 0.435341 -67.034439 -38.528149 182 195 204
-2.262588 2.705851 4.450737 -0.000000 0.996446 0.084228 -34.786461 29.752470 165 177 185
3.428041 -2.216102 2.400000 0.898361 -0.399131 0.183415 52.973831 6.918967 180 194 202
1.856666 1.729424 3.442500 0.769400 -0.467442 0.435341 80.772476 11.524350 186 200 209
1.784105 1.609991 3.442500 0.769400 -0.467442 0.435341 79.672096 11.524350 186 200 209
2.905487 0.249674 0.000000 0.769400 -0.467442 0.435341 75.102592 -18.584860 186 200 209
-0.876584 -3.413128 0.000000 0.863688 -0.167685 0.475315 21.646950 -20.129829 193 208 217
-2.184689 -3.206036 2.450000 0.863688 -0.167685 0.475315 21.284639 1.796737 193 208 217
-2.248186 -3.533088 2.450000 0.863688 -0.167685 0.475315 18.661329 1.796737 193 208 217
1.856666 1.729424 3.442500 0.885447 0.162676 0.435340 40.640850 -8.601693 196 210 220
2.106158 -1.103035 5.100000 0.910192 0.404386 0.089563 0.575651 33.192612 186 200 208
-2.639297 -3.637886 2.450000 0.227713 -0.849837 0.475315 33.688839 18.296310 167 179 187
0.488038 -4.421886 2.400000 -0.898362 -0.399131 0.183415 18.132980 28.428080 112 120 126
-0.050272 -3.210262 2.400000 -0.898362 -0.399131 0.183415 7.693419 28.428080 112 120 126
-0.450140 -3.413128 0.000000 -0.898362 -0.399131 0.183415 7.874827 9.204320 112 120 126
-4.038428 1.324706 4.450737 0.780404 0.590198 0.206485 27.717369 24.575899 189 203 212
-1.058081 5.139937 0.000000 -0.000000 0.972906 0.231202 -44.270771 -18.617701 171 184 192
-0.395545 5.584437 0.000000 -0.844598 0.311661 0.435341 -95.961906 7.548378 143 154 161
-0.753949 4.613166 0.000000 -0.844598 0.311661 0.435341 -87.809990 7.548378 143 154 161
-0.330470 2.909522 2.041224 -0.844598 0.311661 0.435341 -76.379303 25.401581 143 154 161
0.768877 -3.789774 2.400000 0.000000 -0.993924 0.110067 58.656261 19.906919 138 149 155
-5.356872 -0.541464 6.272000 -0.978450 0.000000 0.206485 -35.790150 50.473541 117 126 132
3.067101 -0.300816 0.000000 0.898361 0.399132 0.183416 3.276126 -15.671440 189 203 212
2.688321 -0.551149 2.400000 0.898361 0.399132 0.183416 2.685737 3.552325 189 203 212
3.428041 -2.216102 2.400000 0.898361 0.399132 0.183416 -11.659780 3.552325 189 203 212
0.901716 -3.490777 5.100000 -0.910193 -0.404385 0.089563 12.755440 45.339649 103 111 117
0.675691 -2.982037 5.100000 -0.910193 -0.404385 0.089563 8.372054 45.339649 103 111 117
0.511406 -3.210262 2.400000 -0.910193 -0.404385 0.089563 9.489098 23.994020 103 111 117
-6.146831 2.201948 0.000000 -0.842561 0.486453 0.231202 -51.803711 -5.793229 134 144 151
-4.242539 -2.389760 2.450000 -0.849837 -0.227714 0.475315 -15.544650 28.398750 136 147 153
-4.354602 -1.971539 2.450000 -0.849837 -0.227714 0.475315 -18.953899 28.398750 136 147 153
-5.683559 -2.125789 0.000000 -0.849837 -0.227714 0.475315 -20.489059 6.472182 136 147 153
-4.038428 1.324706 4.450737 -0.000000 0.978450 0.206486 -20.803471 23.865660 170 183 191
0.243037 -4.973332 0.000000 0.000000 -0.974604 0.223934 54.515789 0.200096 145 156 163
-2.262588 2.705851 4.450737 -0.862948 0.498223 0.084227 -70.532173 34.873989 124 133 139
-3.483576 0.591038 4.450737 -0.862948 0.498223 0.084227 -51.304020 34.873989 124 133 139
-3.591387 0.096411 6.272000 -0.862948 0.498223 0.084227 -47.506649 49.265789 124 133 139
-3.383794 -1.412446 6.272000 -0.271560 -0.940010 0.206485 16.908461 55.548489 138 149 156
-6.680469 -0.236043 0.000000 -0.879521 0.428727 0.206485 -34.333221 -3.455713 130 140 146
-0.450140 -3.413128 0.000000 0.000000 -0.996447 0.084227 49.057701 1.110001 137 147 154
-1.216837 0.896989 8.452499 -0.861389 0.497323 0.103340 -62.314491 67.614418 125 135 141
0.857707 2.367590 8.452499 0.862948 0.498223 0.084228 21.154449 59.517120 185 199 208
3 0 1 2
3 3 4 5
3 6 7 8
3 9 10 11
3 11 12 9
3 11 13 12
3 11 14 13
3 14 15 13
3 14 16 15
3 14 17 16
3 9 12 18
3 19 20 21
3 16 17 22
3 23 16 22
3 24 25 26
3 27 28 29
3 30 31 32
3 33 34 35
3 36 37 38
3 39 40 41
3 42 43 44
3 45 46 47
3 48 49 50
3 51 52 53
3 54 55 56
3 57 58 59
3 60 61 62
3 63 64 65
3 66 67 68
3 69 70 71
3 67 72 73
3 72 74 73
3 75 76 77
3 78 79 80
3 81 82 83
3 67 84 68
3 85 86 87
3 88 89 90
3 90 91 88
3 91 92 88
3 93 94 95
3 96 97 98
3 99 75 77
3 100 101 102
3 103 104 105
3 106 107 108
3 109 110 111
3 111 112 109
3 113 114 8
3 8 7 113
3 115 116 117
3 118 119 120
3 120 121 118
3 121 122 118
3 122 123 118
3 122 124 123
3 124 125 123
3 126 127 128
3 129 130 131
3 132 133 134
3 135 136 137
3 138 139 140
3 141 142 143
3 142 141 144
3 145 146 147
3 148 149 150
3 151 148 150
3 151 150 152
3 153 151 152
3 153 152 136
3 154 155 156
3 135 137 157
3 135 157 158
3 135 158 159
3 159 160 135
3 141 161 144
3 161 141 162
3 159 158 163
3 163 164 159
3 161 165 144
3 166 167 168
3 169 170 20
3 20 171 169
3 172 81 83
3 21 173 19
3 21 70 173
3 174 175 176
3 176 177 174
3 177 178 174
3 177 179 178
3 180 181 182
3 183 184 185
3 186 187 188
3 189 190 191
3 192 193 194
3 195 196 197
3 198 199 200
3 201 202 203
3 204 205 206
3 207 208 116
3 209 210 211
3 116 212 213
3 116 214 212
3 18 22 9
3 215 216 217
3 218 219 220
3 221 222 223
3 224 225 226
3 227 228 229
3 230 231 232
3 233 234 235
3 221 236 237
3 238 207 213
3 138 239 240
3 239 241 240
3 242 243 244
3 245 246 247
3 247 248 245
3 247 249 248
3 250 251 252
3 247 253 254
3 249 254 255
3 142 149 148
3 256 257 258
3 259 260 261
3 262 263 219
3 44 38 42
3 264 265 266
3 19 171 20
3 24 267 25
3 268 269 270
3 30 271 31
3 272 273 274
3 39 275 40
3 45 276 46
3 54 277 55
3 278 279 280
3 281 282 283
3 69 173 70
3 75 284 76
3 78 285 79
3 67 73 84
3 286 287 288
3 289 290 291
3 103 292 104
3 115 214 116
3 126 293 127
3 132 294 133
3 135 153 136
3 138 240 139
3 295 296 297
3 154 298 155
3 166 299 167
3 300 301 302
3 180 303 181
3 183 304 184
3 305 306 307
3 308 309 310
3 192 311 193
3 312 313 314
3 201 315 202
3 204 316 205
3 18 23 22
3 317 318 319
3 320 260 259
3 233 321 234
3 221 223 236
3 238 322 207
3 242 323 243
3 142 144 149
3 256 324 257
3 44 36 38
